<svg xmlns="http://www.w3.org/2000/svg" viewBox="0 0 400 400" opacity="0.06">
  <!-- sakura petals scattered -->
  <g fill="#c75b7a">
    <ellipse cx="50" cy="80" rx="8" ry="12" transform="rotate(30 50 80)"/>
    <ellipse cx="150" cy="40" rx="6" ry="10" transform="rotate(-20 150 40)"/>
    <ellipse cx="300" cy="100" rx="7" ry="11" transform="rotate(45 300 100)"/>
    <ellipse cx="80" cy="250" rx="9" ry="13" transform="rotate(-35 80 250)"/>
    <ellipse cx="250" cy="300" rx="6" ry="9" transform="rotate(15 250 300)"/>
    <ellipse cx="350" cy="200" rx="8" ry="12" transform="rotate(-45 350 200)"/>
    <ellipse cx="180" cy="180" rx="5" ry="8" transform="rotate(60 180 180)"/>
    <ellipse cx="320" cy="350" rx="7" ry="10" transform="rotate(-10 320 350)"/>
    <ellipse cx="30" cy="150" rx="6" ry="9" transform="rotate(25 30 150)"/>
    <ellipse cx="200" cy="50" rx="8" ry="11" transform="rotate(-40 200 50)"/>
  </g>
</svg>
